<svg viewBox="0 0 24 24" xmlns="http://www.w3.org/2000/svg"><g fill="none"><path d="M0 0h24v24H0V0Z"/><path stroke="currentColor" stroke-linecap="round" stroke-linejoin="round" stroke-width="1.5" d="M19 21H5a2 2 0 0 1-2-2V5a2 2 0 0 1 2-2h14a2 2 0 0 1 2 2v14a2 2 0 0 1-2 2Z"/><path stroke="currentColor" stroke-linecap="round" stroke-linejoin="round" stroke-width="1.5" d="M12 13.25V13c0-.817.505-1.26 1.011-1.6.494-.333.989-.767.989-1.567a2 2 0 1 0-4 0M11.999 16a.25.25 0 1 0 .002.5A.25.25 0 0 0 12 16"/></g></svg>